<svg xmlns="http://www.w3.org/2000/svg" viewBox="0 0 121.45 266.51"><defs><style>.cls-1{fill:#fff;stroke:#fff;stroke-miterlimit:10;stroke-width:1.33px;}</style></defs><title>Calque 1</title><g id="Calque_2" data-name="Calque 2"><g id="Calque_1-2" data-name="Calque 1"><path class="cls-1" d="M119.86,137.72a122.48,122.48,0,0,0-45.23-14.51,7.94,7.94,0,0,0-5.76-6.6L67,116.09c-.67-.19-1.36-.29-2-.42v-8.75a16.58,16.58,0,0,0-2.39-32.56V2.45a1.79,1.79,0,0,0-3.58,0V74.36a16.58,16.58,0,0,0-2.39,32.56v8.75c-.69.13-1.38.23-2,.42l-1.92.52a7.94,7.94,0,0,0-5.76,6.6A122.48,122.48,0,0,0,1.59,137.72a1.79,1.79,0,0,0-.76,2.33L59.1,264.82a1.8,1.8,0,0,0,3.25,0l58.27-124.77A1.79,1.79,0,0,0,119.86,137.72ZM47.64,90.85a13.09,13.09,0,1,1,13.09,13.08A13.1,13.1,0,0,1,47.64,90.85Zm13,24.41-.53,0v-7.5h1.21v7.5h-.68Zm-7.13,4.81,1.92-.53a20.46,20.46,0,0,1,5.27-.71h.1a20.36,20.36,0,0,1,5.2.7l1.92.53a4.34,4.34,0,0,1,3,2.78,121.3,121.3,0,0,0-20.35,0A4.34,4.34,0,0,1,53.52,120.07Zm7.21,139.76L4.79,140.06a117.94,117.94,0,0,1,111.87,0Z"/><path class="cls-1" d="M65.93,87.93A31.31,31.31,0,0,1,68.71,95a.9.9,0,0,0,.74.67h.13a.91.91,0,0,0,.77-.43c.13-.23,3.26-5.59,0-10.48A10,10,0,0,0,61.44,80a.9.9,0,0,0-.55,1.52A38.37,38.37,0,0,1,65.93,87.93Zm2.95-2.14a7.65,7.65,0,0,1,.82,6.3,29.46,29.46,0,0,0-2.21-5,34.93,34.93,0,0,0-3.71-5A8.75,8.75,0,0,1,68.88,85.79Z"/><path class="cls-1" d="M62.28,241.08a.9.9,0,0,0,.49,1.15.85.85,0,0,0,.35.08.89.89,0,0,0,.81-.53L106.35,148a7.44,7.44,0,0,0-2.84-9.1c-6.76-4.38-18.22-6-18.71-6.06a.86.86,0,0,0-1,.56.88.88,0,0,0,.32,1.06l14.08,9.79a3,3,0,0,1,1.06,3.11Zm37-98.27-10.72-7.46c4,.84,9.94,2.45,14,5.05a5.63,5.63,0,0,1,2.18,6.88l-27.22,60.2L101,147.94A4.78,4.78,0,0,0,99.3,142.81Z"/></g></g></svg>